<svg width="21" height="20" viewBox="0 0 21 20" fill="none" xmlns="http://www.w3.org/2000/svg">
<g id="edit">
<path id="Vector" d="M9.96661 3.33333H4.13328C3.69125 3.33333 3.26733 3.50892 2.95477 3.82148C2.64221 4.13404 2.46661 4.55797 2.46661 4.99999V16.6667C2.46661 17.1087 2.64221 17.5326 2.95477 17.8452C3.26733 18.1577 3.69125 18.3333 4.13328 18.3333H15.7999C16.242 18.3333 16.6659 18.1577 16.9785 17.8452C17.291 17.5326 17.4666 17.1087 17.4666 16.6667V10.8333" stroke="#4185A1" stroke-width="1.5" stroke-linecap="round" stroke-linejoin="round"/>
<path id="Vector_2" d="M16.2166 2.08333C16.5481 1.75181 16.9978 1.56557 17.4666 1.56557C17.9355 1.56557 18.3851 1.75181 18.7166 2.08333C19.0481 2.41485 19.2344 2.86449 19.2344 3.33333C19.2344 3.80217 19.0481 4.25181 18.7166 4.58333L10.7999 12.5L7.46661 13.3333L8.29995 10L16.2166 2.08333Z" stroke="#4185A1" stroke-width="1.5" stroke-linecap="round" stroke-linejoin="round"/>
</g>
</svg>
