<svg width="28" height="28" viewBox="0 0 28 28" fill="none" xmlns="http://www.w3.org/2000/svg">
<g id="Icon">
<g id="Group">
<path id="Vector" d="M11.0833 12.25C13.4996 12.25 15.4583 10.2912 15.4583 7.875C15.4583 5.45876 13.4996 3.5 11.0833 3.5C8.66709 3.5 6.70833 5.45876 6.70833 7.875C6.70833 10.2912 8.66709 12.25 11.0833 12.25Z" fill="#4185A1"/>
<path id="Vector_2" d="M11.0833 15.1667C15.9158 15.1667 19.8333 19.0842 19.8333 23.9167H2.33333C2.33333 19.0842 6.25083 15.1667 11.0833 15.1667Z" fill="#4185A1"/>
<path id="Vector_3" d="M22.75 9.33333C22.75 8.52792 22.0971 7.875 21.2917 7.875C20.4862 7.875 19.8333 8.52792 19.8333 9.33333V10.7917H18.375C17.5696 10.7917 16.9167 11.4446 16.9167 12.25C16.9167 13.0554 17.5696 13.7083 18.375 13.7083H19.8333V15.1667C19.8333 15.9721 20.4862 16.625 21.2917 16.625C22.0971 16.625 22.75 15.9721 22.75 15.1667V13.7083H24.2083C25.0138 13.7083 25.6667 13.0554 25.6667 12.25C25.6667 11.4446 25.0138 10.7917 24.2083 10.7917H22.75V9.33333Z" fill="#4185A1"/>
</g>
</g>
</svg>
