<svg width="37" height="32" viewBox="0 0 37 32" fill="none" xmlns="http://www.w3.org/2000/svg">
<g id="_WYSIWYG editor icon">
<path id="Icon" d="M9.21943 16C9.21943 14.29 10.8025 12.9 12.75 12.9H17.3055V11H12.75C9.60665 11 7.05554 13.24 7.05554 16C7.05554 18.76 9.60665 21 12.75 21H17.3055V19.1H12.75C10.8025 19.1 9.21943 17.71 9.21943 16ZM13.8889 17H23V15H13.8889V17ZM24.1389 11H19.5833V12.9H24.1389C26.0864 12.9 27.6694 14.29 27.6694 16C27.6694 17.71 26.0864 19.1 24.1389 19.1H19.5833V21H24.1389C27.2822 21 29.8333 18.76 29.8333 16C29.8333 13.24 27.2822 11 24.1389 11Z" fill="#98A2B3"/>
</g>
</svg>
