<svg data-v-423bf9ae="" xmlns="http://www.w3.org/2000/svg" viewBox="0 0 418 90" class="iconLeft"><!----><!----><!----><g data-v-423bf9ae="" id="a4bf07fa-57a9-471a-9396-94441a7bce3f" fill="#012B3D" transform="matrix(5.655042595806296,0,0,5.655042595806296,75.03185012085888,14.773796890623792)"><path d="M3.21 1.29L4.48 1.29C5.99 1.29 6.58 2.31 6.58 3.71C6.58 4.87 5.77 6.02 4.45 6.02L3.79 6.02L3.79 6.61L4.41 6.61C6.33 6.61 8.02 5.89 8.02 3.71C8.02 1.89 6.97 0.70 4.94 0.70L0.60 0.70L0.49 1.29L1.72 1.75L1.72 9.45L0.52 9.91L0.62 10.50L4.31 10.50L4.42 9.91L3.21 9.45ZM12.28 10.12C11.44 10.12 10.91 9.49 10.91 8.43L10.91 4.47C10.91 4.47 10.92 3.81 10.15 3.81C9.69 3.81 9.18 3.92 8.86 3.96L8.86 4.47L9.59 4.47L9.59 8.15C9.59 9.83 10.46 10.65 11.98 10.65C12.70 10.65 13.38 10.26 13.78 9.60C13.97 10.39 14.60 10.65 15.09 10.65C15.36 10.65 15.64 10.61 15.86 10.50L15.86 10.00C15.43 10.00 15.04 9.79 15.04 9.35L15.04 3.96L14.55 3.81L13.72 3.96L13.72 7.73C13.72 9.32 12.91 10.12 12.28 10.12ZM19.12 4.33C19.52 4.33 19.84 4.40 20.09 4.49L20.52 5.64C20.92 5.64 21.24 5.32 21.24 4.94C21.24 4.16 20.23 3.81 19.19 3.81C17.67 3.81 16.67 4.54 16.67 5.67C16.67 6.78 17.51 7.25 18.45 7.69C19.24 8.04 20.22 8.37 20.22 9.06C20.22 9.73 19.57 10.12 18.68 10.12C18.38 10.12 17.91 9.98 17.64 9.81L17.30 8.86C16.94 8.86 16.63 9.13 16.63 9.49C16.63 10.29 17.37 10.65 18.79 10.65C20.41 10.65 21.34 9.88 21.34 8.69C21.34 7.46 20.27 6.99 19.28 6.57C18.62 6.29 17.78 5.94 17.78 5.19C17.78 4.72 18.30 4.33 19.12 4.33ZM22.88 0.70L22.88 10.50L24.19 10.50L24.19 6.90C24.19 4.89 25.17 4.47 25.80 4.47C26.43 4.47 27.01 4.72 27.01 5.74L27.01 9.38C27.01 10.36 27.69 10.65 28.21 10.65C28.59 10.65 28.95 10.60 29.15 10.50L29.15 10.00C28.71 10.00 28.32 9.79 28.32 9.35L28.32 6.10C28.32 4.62 27.47 3.81 25.93 3.81C25.10 3.81 24.26 4.35 23.94 5.50L24.19 4.17L24.19 0.70C24.19 0.70 24.21 0.04 23.44 0.04C22.97 0.04 22.36 0.14 22.04 0.20L22.04 0.70ZM43.75 1.29L43.65 0.70L39.93 0.70L39.83 1.29L41.05 1.75L41.05 5.15L36.33 5.15L36.33 1.75L37.55 1.29L37.45 0.70L33.73 0.70L33.63 1.29L34.85 1.75L34.85 9.45L33.64 9.91L33.75 10.50L37.42 10.50L37.52 9.91L36.33 9.45L36.33 5.74L41.05 5.74L41.05 9.45L39.83 9.91L39.93 10.50L43.62 10.50L43.72 9.91L42.53 9.45L42.53 1.75ZM46.33 0.74C45.91 0.74 45.57 1.08 45.57 1.50C45.57 1.92 45.91 2.25 46.33 2.25C46.73 2.25 47.08 1.92 47.08 1.50C47.08 1.08 46.73 0.74 46.33 0.74ZM47.03 4.47C47.03 4.47 47.04 3.81 46.27 3.81C45.81 3.81 45.19 3.91 44.87 3.96L44.87 4.47L45.71 4.47L45.71 10.50L47.03 10.50ZM49.55 4.47L49.55 10.50L50.86 10.50L50.86 7.39C50.86 5.42 51.98 4.47 52.65 4.47L53.05 5.36C53.49 5.36 53.84 5.04 53.84 4.62C53.84 4.20 53.58 3.81 52.85 3.81C52.12 3.81 51.23 4.42 50.86 5.43L50.86 4.66C50.86 4.66 50.88 3.81 50.11 3.81C49.64 3.81 49.08 3.91 48.76 3.96L48.76 4.47ZM60.55 5.78C60.55 4.34 59.46 3.81 57.83 3.81C55.87 3.81 54.47 5.07 54.47 7.22C54.47 9.30 55.64 10.65 58.11 10.65C59.02 10.65 59.92 10.37 60.52 9.83L60.20 9.37C59.63 9.73 58.94 10.00 58.20 10.00C56.92 10.00 56.21 9.14 56.01 7.87C58.38 7.87 60.55 7.49 60.55 5.78ZM55.96 7.11C55.96 5.52 56.57 4.33 57.78 4.33C58.74 4.33 59.23 4.73 59.23 5.61C59.23 6.65 57.79 7.36 55.96 7.38Z"></path></g><defs data-v-423bf9ae=""><linearGradient data-v-423bf9ae="" gradientTransform="rotate(25)" id="09a5c6a7-e402-48dc-badc-f46e65b3b167" x1="0%" y1="0%" x2="100%" y2="0%"><stop data-v-423bf9ae="" offset="0%" style="stop-color: rgb(0, 118, 221); stop-opacity: 1;"></stop><stop data-v-423bf9ae="" offset="100%" style="stop-color: rgb(0, 205, 233); stop-opacity: 1;"></stop></linearGradient></defs><g data-v-423bf9ae="" id="4b6cfecf-88e7-4567-a43a-8221b3966992" transform="matrix(1.267605633802817,0,0,1.267605633802817,-16.433801798753336,-0.13380281690140805)" stroke="none" fill="url(#09a5c6a7-e402-48dc-badc-f46e65b3b167)"><circle cx="27.6" cy="8.6" r="8.1"></circle><path d="M29.9 53.9c.9-2.9 2.5-5.5 4.7-7.5.1-.1.1-.1.1-.2V29.8c0-.6.4-1.1.9-1.1s.9.5.9 1.1v14.6c0 .2.3.4.5.2 1.4-.9 3-1.6 4.7-2.1.1 0 .2-.1.2-.3V23.1c0-1.9-1.2-3.5-2.7-3.5h-7.9c-.1 0-.2 0-.2.1-.4.4-1.9 2-1.9 2-.2.2-.3.4-.2.6l1 14.5c0 .2-.1.5-.3.7L28 39c-.3.3-.8.3-1.2 0l-1.4-1.4c-.2-.2-.3-.4-.3-.7l1-14.5c0-.2-.1-.5-.2-.6 0 0-1.5-1.6-1.9-2-.1-.1-.1-.1-.2-.1h-7.9c-1.5 0-2.7 1.6-2.7 3.5V46c0 1.7.9 3.2 2.1 3.5 1.7.5 3.2-1.3 3.2-3.4V29.8c0-.6.4-1.1.9-1.1s.9.5.9 1.1v38.1c0 1.7.9 3.2 2.1 3.5 1.7.5 3.2-1.3 3.2-3.4V49.3c0-1.3.8-2.4 1.8-2.4s1.8 1.1 1.8 2.4v4.6c.1.3.6.3.7 0z"></path><path d="M29.9 63.5c-.1-.3-.6-.2-.6.1v4.3c0 1.7.9 3.2 2.1 3.5.9.2 1.8-.1 2.3-.9.1-.1.1-.3 0-.4-1.8-1.8-3.1-4.1-3.8-6.6zM46 45.9c-7.1 0-12.8 5.7-12.8 12.8S38.9 71.5 46 71.5s12.8-5.7 12.8-12.8S53 45.9 46 45.9zm8.1 10.9L42.7 64c-.3.2-.7.3-1.1.3-.2 0-.4 0-.5-.1-.5-.2-1-.5-1.3-1.1L37 57.4c-.4-.9-.2-2 .6-2.6 1-.7 2.4-.3 3 .8l1.6 3.3c.1.3.5.4.8.2l9.1-5.8c1-.6 2.3-.3 2.9.8.4 1 0 2.1-.9 2.7z"></path></g><!----></svg>