<svg width="37" height="32" viewBox="0 0 37 32" fill="none" xmlns="http://www.w3.org/2000/svg">
<g id="_WYSIWYG editor icon">
<path id="Icon" d="M9.50692 14.5C8.56164 14.5 7.79858 15.17 7.79858 16C7.79858 16.83 8.56164 17.5 9.50692 17.5C10.4522 17.5 11.2153 16.83 11.2153 16C11.2153 15.17 10.4522 14.5 9.50692 14.5ZM9.50692 8.5C8.56164 8.5 7.79858 9.17 7.79858 10C7.79858 10.83 8.56164 11.5 9.50692 11.5C10.4522 11.5 11.2153 10.83 11.2153 10C11.2153 9.17 10.4522 8.5 9.50692 8.5ZM9.50692 20.5C8.56164 20.5 7.79858 21.18 7.79858 22C7.79858 22.82 8.57303 23.5 9.50692 23.5C10.4408 23.5 11.2153 22.82 11.2153 22C11.2153 21.18 10.4522 20.5 9.50692 20.5ZM12.9236 23H28.868V21H12.9236V23ZM12.9236 17H28.868V15H12.9236V17ZM12.9236 9V11H28.868V9H12.9236Z" fill="#98A2B3"/>
</g>
</svg>
