<svg width="111" height="20" viewBox="0 0 111 20" fill="none" xmlns="http://www.w3.org/2000/svg">
<path d="M0 19.7244V0.909508H7.05558C8.501 0.909508 9.71367 1.17899 10.6936 1.71796C11.6797 2.25693 12.4238 2.99801 12.926 3.9412C13.4344 4.87827 13.6886 5.94396 13.6886 7.13826C13.6886 8.34482 13.4344 9.41663 12.926 10.3537C12.4177 11.2908 11.6674 12.0288 10.6752 12.5678C9.68305 13.1006 8.46118 13.367 7.00965 13.367H2.33349V10.565H6.5503C7.3955 10.565 8.08758 10.418 8.62655 10.124C9.16552 9.83004 9.56362 9.42582 9.82085 8.91135C10.0842 8.39688 10.2159 7.80585 10.2159 7.13826C10.2159 6.47068 10.0842 5.88271 9.82085 5.37437C9.56362 4.86602 9.16246 4.47098 8.61736 4.18925C8.0784 3.90139 7.38325 3.75746 6.53192 3.75746H3.40836V19.7244H0Z" fill="#4185A1"/>
<path d="M25.4961 13.7896V5.61323H28.8218V19.7244H25.5972V17.2164H25.4502C25.1317 18.0064 24.608 18.6526 23.8792 19.1548C23.1565 19.657 22.2654 19.9081 21.2058 19.9081C20.281 19.9081 19.4633 19.703 18.7529 19.2926C18.0485 18.8761 17.4973 18.2729 17.0992 17.4828C16.7011 16.6866 16.5021 15.725 16.5021 14.5981V5.61323H19.8277V14.0836C19.8277 14.9778 20.0727 15.6883 20.5627 16.215C21.0527 16.7417 21.6958 17.0051 22.492 17.0051C22.9819 17.0051 23.4566 16.8856 23.9159 16.6468C24.3753 16.4079 24.752 16.0527 25.0459 15.5811C25.346 15.1034 25.4961 14.5062 25.4961 13.7896Z" fill="#4185A1"/>
<path d="M43.3946 9.34313L40.3629 9.67386C40.2771 9.36763 40.1271 9.07977 39.9127 8.81029C39.7045 8.54081 39.4228 8.32338 39.0675 8.15802C38.7123 7.99265 38.2774 7.90997 37.763 7.90997C37.0709 7.90997 36.4891 8.06002 36.0175 8.36013C35.552 8.66024 35.3223 9.04915 35.3284 9.52687C35.3223 9.93722 35.4724 10.271 35.7786 10.5283C36.091 10.7855 36.6054 10.9968 37.322 11.1622L39.729 11.6766C41.0642 11.9645 42.0563 12.4208 42.7056 13.0455C43.3609 13.6702 43.6916 14.4878 43.6978 15.4984C43.6916 16.3865 43.4313 17.1704 42.9169 17.8503C42.4085 18.524 41.7011 19.0507 40.7947 19.4304C39.8882 19.8101 38.847 20 37.6711 20C35.944 20 34.5537 19.6386 33.5002 18.9159C32.4468 18.1871 31.819 17.1735 31.6169 15.8751L34.8599 15.5627C35.0069 16.1997 35.3192 16.6804 35.797 17.0051C36.2747 17.3297 36.8963 17.492 37.6619 17.492C38.452 17.492 39.0859 17.3297 39.5636 17.0051C40.0475 16.6804 40.2894 16.2793 40.2894 15.8016C40.2894 15.3973 40.1332 15.0635 39.8209 14.8002C39.5146 14.5368 39.0369 14.3347 38.3877 14.1938L35.9807 13.6886C34.6272 13.4068 33.6258 12.9322 32.9766 12.2646C32.3274 11.5909 32.0058 10.7396 32.0119 9.71061C32.0058 8.84091 32.2416 8.08758 32.7193 7.45062C33.2032 6.80753 33.8738 6.31144 34.7313 5.96233C35.5949 5.60711 36.5901 5.42949 37.717 5.42949C39.3707 5.42949 40.6722 5.78166 41.6215 6.48599C42.5769 7.19032 43.168 8.1427 43.3946 9.34313Z" fill="#4185A1"/>
<path d="M49.7657 11.4561V19.7244H46.4401V0.909508H49.6922V8.01102H49.8576C50.1883 7.21482 50.6997 6.58705 51.3918 6.1277C52.09 5.66223 52.9781 5.42949 54.056 5.42949C55.036 5.42949 55.8904 5.63467 56.6192 6.04502C57.348 6.45537 57.9115 7.05558 58.3096 7.84566C58.7138 8.63574 58.9159 9.60037 58.9159 10.7395V19.7244H55.5903V11.254C55.5903 10.3047 55.3453 9.56668 54.8553 9.03996C54.3715 8.50712 53.6916 8.2407 52.8158 8.2407C52.2278 8.2407 51.7011 8.36932 51.2356 8.62655C50.7763 8.87766 50.4149 9.24208 50.1516 9.7198C49.8944 10.1975 49.7657 10.7763 49.7657 11.4561Z" fill="#4185A1"/>
<path d="M62.4529 19.7244V0.909508H65.8613V8.8746H74.5797V0.909508H77.9972V19.7244H74.5797V11.7317H65.8613V19.7244H62.4529Z" fill="#4185A1"/>
<path d="M81.5572 19.7244V5.61323H84.8829V19.7244H81.5572ZM83.2292 3.61047C82.7025 3.61047 82.2493 3.43592 81.8695 3.08682C81.4898 2.73159 81.3 2.30593 81.3 1.80983C81.3 1.30761 81.4898 0.881947 81.8695 0.532843C82.2493 0.177614 82.7025 0 83.2292 0C83.7621 0 84.2153 0.177614 84.5889 0.532843C84.9686 0.881947 85.1585 1.30761 85.1585 1.80983C85.1585 2.30593 84.9686 2.73159 84.5889 3.08682C84.2153 3.43592 83.7621 3.61047 83.2292 3.61047Z" fill="#4185A1"/>
<path d="M88.3027 19.7244V5.61323H91.5273V7.96509H91.6743C91.9316 7.15051 92.3725 6.52274 92.9972 6.08176C93.6281 5.63467 94.3477 5.41112 95.1562 5.41112C95.3399 5.41112 95.5451 5.4203 95.7717 5.43868C96.0044 5.45093 96.1974 5.47236 96.3505 5.50299V8.56224C96.2096 8.51324 95.9861 8.47037 95.6798 8.43362C95.3797 8.39075 95.0888 8.36932 94.8071 8.36932C94.2007 8.36932 93.6556 8.501 93.1718 8.76435C92.6941 9.02159 92.3174 9.37988 92.0418 9.83923C91.7662 10.2986 91.6284 10.8284 91.6284 11.4286V19.7244H88.3027Z" fill="#4185A1"/>
<path d="M104.226 20C102.811 20 101.589 19.706 100.56 19.1181C99.5376 18.524 98.7506 17.6849 98.1994 16.6008C97.6481 15.5106 97.3725 14.2275 97.3725 12.7515C97.3725 11.3 97.6481 10.026 98.1994 8.92972C98.7567 7.82729 99.5345 6.96984 100.533 6.35737C101.531 5.73878 102.704 5.42949 104.051 5.42949C104.921 5.42949 105.742 5.57036 106.514 5.85209C107.291 6.1277 107.977 6.55642 108.571 7.13826C109.172 7.7201 109.643 8.46119 109.986 9.36151C110.329 10.2557 110.501 11.3214 110.501 12.5586V13.5783H98.9343V11.3367H107.313C107.307 10.6997 107.169 10.1332 106.899 9.63712C106.63 9.1349 106.253 8.73986 105.769 8.452C105.292 8.16414 104.734 8.02021 104.097 8.02021C103.418 8.02021 102.82 8.18558 102.306 8.51631C101.791 8.84091 101.39 9.26964 101.102 9.80248C100.821 10.3292 100.677 10.908 100.671 11.5388V13.4956C100.671 14.3163 100.821 15.0207 101.121 15.6086C101.421 16.1905 101.84 16.6376 102.379 16.9499C102.918 17.2562 103.549 17.4093 104.272 17.4093C104.756 17.4093 105.194 17.3419 105.586 17.2072C105.978 17.0663 106.318 16.8611 106.605 16.5916C106.893 16.3222 107.111 15.9884 107.258 15.5903L110.363 15.9394C110.167 16.7601 109.793 17.4767 109.242 18.0891C108.697 18.6955 107.999 19.167 107.147 19.5039C106.296 19.8346 105.322 20 104.226 20Z" fill="#4185A1"/>
</svg>
