<svg width="21" height="20" viewBox="0 0 21 20" fill="none" xmlns="http://www.w3.org/2000/svg">
<g id="trash-2">
<path id="Vector" d="M3.29993 5H4.96659H18.2999" stroke="#FF0000" stroke-width="1.5" stroke-linecap="round" stroke-linejoin="round"/>
<path id="Vector_2" d="M16.6333 5.00001V16.6667C16.6333 17.1087 16.4577 17.5326 16.1451 17.8452C15.8326 18.1577 15.4086 18.3333 14.9666 18.3333H6.63328C6.19125 18.3333 5.76733 18.1577 5.45477 17.8452C5.14221 17.5326 4.96661 17.1087 4.96661 16.6667V5.00001M7.46661 5.00001V3.33334C7.46661 2.89131 7.64221 2.46739 7.95477 2.15483C8.26733 1.84227 8.69125 1.66667 9.13328 1.66667H12.4666C12.9086 1.66667 13.3326 1.84227 13.6451 2.15483C13.9577 2.46739 14.1333 2.89131 14.1333 3.33334V5.00001" stroke="#FF0000" stroke-width="1.5" stroke-linecap="round" stroke-linejoin="round"/>
<path id="Vector_3" d="M9.13324 9.16667V14.1667" stroke="#FF0000" stroke-width="1.5" stroke-linecap="round" stroke-linejoin="round"/>
<path id="Vector_4" d="M12.4666 9.16667V14.1667" stroke="#FF0000" stroke-width="1.5" stroke-linecap="round" stroke-linejoin="round"/>
</g>
</svg>
